{"title":"I Spit On Your Grave-AC3-XviD-DVDRip 2010 TBS","uid":6127440,"size":1569631909,"categoryP":"video","categoryS":"movies","magnet":"?xt=urn:btih:c71c5274e93f355fe90232abeaaf9545e44d75aa&amp;dn=I+Spit+On+Your+Grave-AC3-XviD-DVDRip+2010+TBS&amp;tr=udp%3A%2F%2Ftracker.openbittorrent.com%3A80&amp;tr=udp%3A%2F%2Fopen.demonii.com%3A1337&amp;tr=udp%3A%2F%2Ftracker.coppersurfer.tk%3A6969&amp;tr=udp%3A%2F%2Fexodus.desync.com%3A6969","seeders":0,"leechers":1,"uploader":"FatFreddy30","files":10,"time":1295992983,"description":"I Spit on Your Grave (2010) Alternatieve titel: Day of the Woman \n\nA writer who is brutalized during her cabin retreat seeks revenge on her attackers, who left her for dead...\n\nSubs: Dutch, English (srt).\n\n\nEen schrijfster trekt zich voor haar nieuwste boek terug in een verlaten huisje in de bossen. Hier wordt ze op brute wijze overvallen en verkracht en voor dood achtergelaten. Weer bijgekomen besluit ze om wraak te nemen op de personen die haar hebben aangevallen. En voor deze wraak gaat ze niets uit de weg..\n\nOndertitels: Engels, Nederlands (srt).\n\n\nGeneral\nComplete name                    : I Spit On Your Grave-AC3-XviD-DVDRip 2010 TBS\\I Spit On Your Grave-AC3-XviD-DVDRip 2010 TBS.avi\nFormat                           : AVI\nFormat/Info                      : Audio Video Interleave\nFile size                        : 1.46 GiB\nDuration                         : 1h 48mn\nOverall bit rate                 : 1 932 Kbps\nWriting application              : VirtualDubMod 1.5.4.1 (build 2178/release)\nWriting library                  : VirtualDubMod build 2178/release\nSource                           : I.Spit.On.Your.Grave.UNRATED.2010.LiMiTED.DVDR-TWiZTED \n\nVideo\nID                               : 0\nFormat                           : MPEG-4 Visual\nFormat profile                   : Simple@L3\nFormat settings, BVOP            : No\nFormat settings, QPel            : No\nFormat settings, GMC             : No warppoints\nFormat settings, Matrix          : Default (H.263)\nCodec ID                         : XVID\nCodec ID/Hint                    : XviD\nDuration                         : 1h 48mn\nBit rate                         : 1 475 Kbps\nWidth                            : 720 pixels\nHeight                           : 304 pixels\nDisplay aspect ratio             : 2.35:1\nFrame rate                       : 23.976 fps\nResolution                       : 8 bits\nColorimetry                      : 4:2:0\nScan type                        : Progressive\nBits/(Pixel*Frame)               : 0.281\nStream size                      : 1.12 GiB (76%)\nWriting library                  : XviD 1.1.2 (UTC 2006-11-01)\n\nAudio\nID                               : 1\nFormat                           : AC-3\nFormat/Info                      : Audio Coding 3\nCodec ID                         : 2000\nDuration                         : 1h 48mn\nBit rate mode                    : Constant\nBit rate                         : 448 Kbps\nChannel(s)                       : 6 channels\nChannel positions                : Front: L C R, Surround: L R, LFE\nSampling rate                    : 48.0 KHz\nStream size                      : 347 MiB (23%)\nAlignment                        : Split accross interleaves\nInterleave, duration             : 42 ms (1.00 video frame)\nInterleave, preload duration     : 500 ms\n\nThanks to FGTR for the source and Dutch subs.\n\nBlackbeard  TBS.","torrent":{"xt":"urn:btih:c71c5274e93f355fe90232abeaaf9545e44d75aa","amp;dn":"I+Spit+On+Your+Grave-AC3-XviD-DVDRip+2010+TBS","amp;tr":["udp%3A%2F%2Ftracker.openbittorrent.com%3A80","udp%3A%2F%2Fopen.demonii.com%3A1337","udp%3A%2F%2Ftracker.coppersurfer.tk%3A6969","udp%3A%2F%2Fexodus.desync.com%3A6969"],"infoHash":"c71c5274e93f355fe90232abeaaf9545e44d75aa","infoHashBuffer":{"type":"Buffer","data":[199,28,82,116,233,63,53,95,233,2,50,171,234,175,149,69,228,77,117,170]},"announce":[],"urlList":[]}}